<?xml version="1.0"?>
<svg xmlns="http://www.w3.org/2000/svg" height="512px" viewBox="0 -63 480 479" width="512px" class=""><g><g fill="#1e81ce"><path d="m472 16.5h-464c-4.417969 0-8-3.582031-8-8s3.582031-8 8-8h464c4.417969 0 8 3.582031 8 8s-3.582031 8-8 8zm0 0" data-original="#000000" class="active-path" data-old_color="#FCFAFA" fill="#FDFBFB"/><path d="m472 128.5h-464c-4.417969 0-8-3.582031-8-8s3.582031-8 8-8h464c4.417969 0 8 3.582031 8 8s-3.582031 8-8 8zm0 0" data-original="#000000" class="active-path" data-old_color="#FCFAFA" fill="#FDFBFB"/><path d="m472 240.5h-464c-4.417969 0-8-3.582031-8-8s3.582031-8 8-8h464c4.417969 0 8 3.582031 8 8s-3.582031 8-8 8zm0 0" data-original="#000000" class="active-path" data-old_color="#FCFAFA" fill="#FDFBFB"/><path d="m472 352.5h-464c-4.417969 0-8-3.582031-8-8s3.582031-8 8-8h464c4.417969 0 8 3.582031 8 8s-3.582031 8-8 8zm0 0" data-original="#000000" class="active-path" data-old_color="#FCFAFA" fill="#FDFBFB"/></g></g> </svg>
