<?xml version="1.0" encoding="iso-8859-1"?>
<!-- Generator: Adobe Illustrator 19.0.0, SVG Export Plug-In . SVG Version: 6.00 Build 0)  -->
<svg version="1.1" id="Capa_1" xmlns="http://www.w3.org/2000/svg" xmlns:xlink="http://www.w3.org/1999/xlink" x="0px" y="0px"
	 viewBox="0 0 509.583 509.583" style="enable-background:new 0 0 509.583 509.583;" xml:space="preserve">
<path style="fill:#5DE0BF;" d="M502.052,329.974c0.01,4.404-3.547,7.97-7.95,7.98l-38.287,0.06
	c-8.299-14.267-23.772-23.851-41.466-23.821c-17.704,0.03-33.147,9.684-41.386,24.001l-30.297,0.049l-0.169-87.674l158.39-0.299
	c0.677,2.57,1.026,5.24,1.036,7.97l0.04,23.911l-15.941,0.03c-4.384,0.01-7.96,3.597-7.95,7.98l0.01,7.97
	c0.01,4.384,3.607,7.97,7.99,7.96l15.941-0.03L502.052,329.974z"/>
<path style="fill:#FFFFFF;" d="M501.963,282.152l0.05,23.911l-15.941,0.03c-4.384,0.01-7.98-3.577-7.99-7.96l-0.01-7.97
	c-0.01-4.384,3.567-7.97,7.95-7.98L501.963,282.152z"/>
<path style="fill:#76FFD9;" d="M500.887,250.271l-158.39,0.299l-0.06-31.881l111.585-0.209l30.218,11.278
	C492.618,233.922,498.605,241.474,500.887,250.271z"/>
<path style="fill:#C1C8D2;" d="M455.815,338.014c4.085,7.034,6.426,15.193,6.446,23.911c0.05,26.412-21.32,47.862-47.732,47.912
	s-47.862-21.321-47.912-47.732c-0.02-8.708,2.292-16.877,6.346-23.911c8.239-14.317,23.682-23.971,41.386-24.001
	C432.043,314.163,447.515,323.747,455.815,338.014z"/>
<path style="fill:#FFFFFF;" d="M436.805,153.561l17.216,64.918l-111.585,0.209l-0.159-87.674l63.952-0.12
	C420.307,130.866,432.73,140.081,436.805,153.561z"/>
<path style="fill:#FFC843;" d="M7.803,283.079L7.474,107.732c-0.01-4.404,3.557-7.98,7.96-7.98l318.813-0.608
	c4.394,0,7.97,3.557,7.98,7.96l0.05,23.911l0.159,87.674l0.06,31.881l0.17,87.673l-103.594,0.179l-102.08,0.189
	c-8.299-14.267-23.762-23.841-41.456-23.811c-17.704,0.03-33.147,9.684-41.396,24.001l-38.257,0.06c-4.404,0-7.98-3.557-7.99-7.96
	L7.803,283.079z"/>
<path style="fill:#E1EAF8;" d="M255.052,370.284c0.01,8.767-7.143,15.961-15.911,15.971l-47.822,0.09
	c-8.767,0.02-15.961-7.143-15.971-15.911l-0.02-7.97l-0.01-7.97c-0.02-8.767,7.143-15.951,15.911-15.971l47.822-0.09
	c0.01,0,0.01,0,0.02,0c8.757,0,15.931,7.153,15.951,15.911l0.01,7.97L255.052,370.284z"/>
<path style="fill:#C1C8D2;" d="M136.992,338.612c4.095,7.024,6.436,15.193,6.456,23.911c0.05,26.412-21.321,47.872-47.732,47.912
	c-26.412,0.05-47.862-21.321-47.912-47.722c-0.02-8.708,2.292-16.867,6.337-23.911c8.249-14.317,23.692-23.971,41.396-24.001
	C113.23,314.771,128.693,324.345,136.992,338.612z"/>
<g>
	<circle style="fill:#FFFFFF;" cx="414.313" cy="362.493" r="16.937"/>
	<circle style="fill:#FFFFFF;" cx="95.493" cy="362.493" r="17.933"/>
</g>
<path style="fill:#C1C8D2;" d="M199.24,354.95c-1.963,0-3.885,0.797-5.28,2.192c-1.395,1.385-2.192,3.318-2.192,5.28
	c0,1.963,0.797,3.896,2.192,5.28c1.395,1.395,3.318,2.192,5.28,2.192c1.973,0,3.895-0.797,5.29-2.192
	c1.385-1.385,2.182-3.318,2.182-5.28c0-1.963-0.797-3.895-2.182-5.28C203.135,355.747,201.213,354.95,199.24,354.95z"/>
<g>
	<path style="fill:#FFFFFF;" d="M294.74,290.012c0.005,0,0.01,0,0.015,0l15.937-0.03c4.127-0.008,7.466-3.359,7.458-7.487
		c-0.008-4.122-3.352-7.457-7.472-7.457c-0.005,0-0.01,0-0.015,0l-15.937,0.03c-4.127,0.008-7.466,3.359-7.458,7.487
		C287.276,286.675,290.621,290.012,294.74,290.012z"/>
	<path style="fill:#FFFFFF;" d="M270.52,282.524L270.52,282.524c0-4.12-3.34-7.459-7.459-7.459H13.289
		c-4.12,0-7.459,3.34-7.459,7.459l0,0c0,4.12,3.34,7.459,7.459,7.459h249.772C267.181,289.984,270.52,286.643,270.52,282.524z"/>
</g>
<path style="fill:#434C54;" d="M502.115,354.381H502.1l-32.898,0.062c-0.423-3.073-1.087-6.071-1.996-8.963l26.907-0.051
	c4.126-0.008,8-1.621,10.912-4.544c2.911-2.922,4.51-6.803,4.502-10.927l-0.045-23.909v-0.003v-0.003l-0.09-47.819
	c-0.004-1.892-0.142-3.759-0.404-5.592c0.062-1.257-0.873-4.776-1.934-7.77c-3.37-9.344-10.218-17.186-19.482-21.797
	c-0.233-0.116-0.472-0.22-0.716-0.311l-26.601-9.929l-16.227-61.186c-0.022-0.082-0.045-0.163-0.07-0.245
	c-5.057-16.742-20.188-27.974-37.668-27.974h-0.08l-56.481,0.106l-0.031-16.439c-0.008-4.126-1.621-8-4.544-10.911
	c-2.915-2.904-6.784-4.502-10.896-4.502h-0.032L15.413,92.273C6.899,92.29-0.016,99.23,0,107.744l0.33,175.343v0.003v0.003
	l0.09,47.819c0.008,4.126,1.621,8,4.544,10.911c2.915,2.904,6.784,4.503,10.896,4.503h0.032l26.889-0.051
	c-0.898,2.914-1.547,5.913-1.953,8.971l-32.889,0.062c-4.127,0.008-7.466,3.359-7.458,7.486c0.008,4.123,3.352,7.458,7.472,7.458
	h0.015l32.898-0.062c3.71,26.91,26.863,47.719,54.759,47.719h0.106c14.769-0.028,28.643-5.805,39.067-16.268
	c8.645-8.678,14.045-19.718,15.626-31.656l17.447-0.033l0.001,0.498c0.024,12.885,10.527,23.368,23.413,23.368h0.044l47.822-0.09
	c6.236-0.012,12.106-2.464,16.529-6.902c4.422-4.44,6.851-10.319,6.84-16.555l-0.001-0.498l97.159-0.183
	c3.71,26.91,26.862,47.719,54.758,47.719h0.106c27.954-0.053,51.075-20.951,54.685-47.925l32.898-0.062
	c4.127-0.008,7.466-3.359,7.458-7.486C509.579,357.718,506.236,354.381,502.115,354.381z M406.242,138.367h0.049
	c10.802,0,20.158,6.916,23.329,17.237l14.696,55.421l-94.418,0.177l-0.136-72.729L406.242,138.367z M124.214,391.095
	c-7.607,7.635-17.731,11.852-28.509,11.872h-0.078c-22.206,0-40.306-18.067-40.348-40.274c-0.021-10.778,4.158-20.918,11.764-28.554
	c7.607-7.636,17.732-11.852,28.588-11.872c22.206,0,40.306,18.067,40.348,40.274C135.999,373.32,131.821,383.46,124.214,391.095z
	 M167.845,354.511l0.001,0.498l-17.456,0.033c-0.424-3.073-1.087-6.071-1.996-8.963l21.025-0.04
	C168.384,348.709,167.84,351.569,167.845,354.511z M239.125,378.786l-47.822,0.09h-0.016c-4.661,0-8.459-3.792-8.468-8.452
	l-0.015-7.947c0,0,0.001-0.016,0.001-0.024s-0.001-0.016-0.001-0.016l-0.015-7.954c-0.004-2.244,0.878-4.368,2.483-5.979
	c1.602-1.608,3.718-2.498,5.958-2.505l47.853-0.09c4.66,0.002,8.457,3.792,8.465,8.453l0.03,15.941
	C247.587,374.972,243.795,378.777,239.125,378.786z M237.552,330.967l-46.338,0.087c-0.007,0-0.013,0-0.02,0l-47.8,0.09
	c-0.738,0.001-1.45,0.114-2.123,0.315c-9.974-14.559-26.716-24.136-45.64-24.136h-0.106c-14.77,0.028-28.644,5.805-39.069,16.268
	c-2.482,2.492-4.689,5.183-6.623,8.029c-0.657-0.189-1.35-0.297-2.069-0.297h-0.015l-31.883,0.061
	c-0.029-0.011-0.205,0.001-0.352-0.145c-0.145-0.145-0.146-0.302-0.146-0.353l-0.076-40.35l-0.028-14.944l-0.315-167.874
	c0-0.275,0.223-0.499,0.497-0.5l318.813-0.599c0.045,0.004,0.206,0,0.352,0.145c0.145,0.145,0.146,0.301,0.146,0.352l0.045,23.908
	v0.003v0.003l0.165,87.67v0.001l0.06,31.879v0.002v0.002l0.15,80.199L237.552,330.967z M359.644,354.648l-97.151,0.183l-0.001-0.498
	c-0.006-2.985-0.58-5.838-1.61-8.466l81.796-0.153l18.918-0.036C360.699,348.593,360.049,351.592,359.644,354.648z M414.517,402.368
	h-0.078c-22.206,0-40.306-18.067-40.348-40.274c-0.021-10.778,4.158-20.918,11.764-28.554c7.607-7.636,17.732-11.852,28.588-11.872
	c22.206,0,40.306,18.067,40.348,40.274C454.833,384.191,436.766,402.326,414.517,402.368z M494.551,313.547l0.031,16.439
	c0,0.052,0,0.207-0.145,0.353c-0.145,0.145-0.301,0.145-0.353,0.145l-31.881,0.061c-0.737,0.001-1.449,0.114-2.121,0.314
	c-9.974-14.559-26.716-24.135-45.64-24.135h-0.106c-14.77,0.028-28.644,5.805-39.069,16.268c-2.482,2.492-4.69,5.183-6.624,8.029
	c-0.657-0.189-1.35-0.297-2.069-0.297h-0.015l-16.439,0.031l-0.196-104.61l102.756-0.193l28.559,10.659
	c3.027,1.562,5.806,3.548,7.697,6.21c5.387,7.589,5.492,14.934,5.492,14.934c0.004,0.166,0.018,0.331,0.018,0.498l0.031,16.439
	L494.551,313.547z"/>
<g>
	<path style="fill:#00C395;" d="M172.306,234.509L172.306,234.509c2.913-2.913,2.913-7.636,0-10.549l-31.339-31.339
		c-2.913-2.913-7.636-2.913-10.549,0l0,0c-2.913,2.913-2.913,7.636,0,10.549l31.339,31.339
		C164.669,237.422,169.393,237.422,172.306,234.509z"/>
	<path style="fill:#00C395;" d="M161.717,234.518L161.717,234.518c2.913,2.913,7.636,2.913,10.549,0l55.826-55.826
		c2.913-2.913,2.913-7.636,0-10.549l0,0c-2.913-2.913-7.636-2.913-10.549,0l-55.826,55.826
		C158.804,226.882,158.804,231.605,161.717,234.518z"/>
</g>
<g>
</g>
<g>
</g>
<g>
</g>
<g>
</g>
<g>
</g>
<g>
</g>
<g>
</g>
<g>
</g>
<g>
</g>
<g>
</g>
<g>
</g>
<g>
</g>
<g>
</g>
<g>
</g>
<g>
</g>
</svg>
